<svg width="32" height="28" viewBox="0 0 32 28" fill="none" xmlns="http://www.w3.org/2000/svg">
<path d="M1.54007 28C1.25426 28 0.994438 27.9289 0.760597 27.7868C0.526756 27.6448 0.34488 27.4565 0.214969 27.2222C0.0850573 26.9878 0.0138658 26.7348 0.00139433 26.4631C-0.0110772 26.1914 0.0601143 25.9259 0.214969 25.6666L14.6352 0.777777C14.791 0.518518 14.9927 0.324074 15.24 0.194444C15.4874 0.0648147 15.7404 0 15.9992 0C16.258 0 16.5116 0.0648147 16.76 0.194444C17.0084 0.324074 17.2095 0.518518 17.3633 0.777777L31.7835 25.6666C31.9394 25.9259 32.0111 26.1919 31.9986 26.4646C31.9861 26.7374 31.9144 26.9899 31.7835 27.2222C31.6525 27.4545 31.4707 27.6427 31.2379 27.7868C31.005 27.931 30.7452 28.002 30.4584 28H1.54007ZM4.22924 24.8888H27.7692L15.9992 4.66666L4.22924 24.8888ZM17.1107 22.8869C17.409 22.5882 17.5582 22.2185 17.5582 21.7777C17.5582 21.337 17.4085 20.9678 17.1092 20.6702C16.8099 20.3726 16.4399 20.2232 15.9992 20.2222C15.5586 20.2212 15.1886 20.3705 14.8893 20.6702C14.5899 20.9699 14.4403 21.3391 14.4403 21.7777C14.4403 22.2164 14.5899 22.5861 14.8893 22.8869C15.1886 23.1876 15.5586 23.3364 15.9992 23.3333C16.4399 23.3302 16.8104 23.1824 17.1107 22.8869ZM17.1107 18.2186C17.409 17.921 17.5582 17.5518 17.5582 17.1111V12.4444C17.5582 12.0037 17.4085 11.6345 17.1092 11.3369C16.8099 11.0392 16.4399 10.8899 15.9992 10.8889C15.5586 10.8878 15.1886 11.0372 14.8893 11.3369C14.5899 11.6366 14.4403 12.0058 14.4403 12.4444V17.1111C14.4403 17.5518 14.5899 17.9215 14.8893 18.2202C15.1886 18.5189 15.5586 18.6677 15.9992 18.6666C16.4399 18.6656 16.8104 18.5163 17.1107 18.2186Z" fill="#D34A4A"/>
</svg>
