<svg width="32" height="32" viewBox="0 0 32 32" fill="none" xmlns="http://www.w3.org/2000/svg">
<path d="M14.4 24H17.6V14.4H14.4V24ZM17.1408 10.7408C17.4469 10.4336 17.6 10.0533 17.6 9.6C17.6 9.14666 17.4464 8.76693 17.1392 8.4608C16.832 8.15466 16.4523 8.00106 16 8C15.5477 7.99893 15.168 8.15253 14.8608 8.4608C14.5536 8.76906 14.4 9.1488 14.4 9.6C14.4 10.0512 14.5536 10.4315 14.8608 10.7408C15.168 11.0501 15.5477 11.2032 16 11.2C16.4523 11.1968 16.8325 11.0432 17.1408 10.7392M16 32C13.7867 32 11.7067 31.5797 9.76 30.7392C7.81333 29.8987 6.12 28.7589 4.68 27.32C3.24 25.8811 2.10027 24.1877 1.2608 22.24C0.421335 20.2923 0.00106869 18.2123 2.02531e-06 16C-0.00106464 13.7877 0.419202 11.7077 1.2608 9.76C2.1024 7.81226 3.24213 6.11893 4.68 4.68C6.11787 3.24107 7.8112 2.10133 9.76 1.2608C11.7088 0.420267 13.7888 0 16 0C18.2112 0 20.2912 0.420267 22.24 1.2608C24.1888 2.10133 25.8821 3.24107 27.32 4.68C28.7579 6.11893 29.8981 7.81226 30.7408 9.76C31.5834 11.7077 32.0032 13.7877 32 16C31.9968 18.2123 31.5765 20.2923 30.7392 22.24C29.9018 24.1877 28.7621 25.8811 27.32 27.32C25.8779 28.7589 24.1845 29.8992 22.24 30.7408C20.2955 31.5824 18.2155 32.0021 16 32Z" fill="#9242CC"/>
</svg>
