<svg width="30" height="22" viewBox="0 0 30 22" fill="none" xmlns="http://www.w3.org/2000/svg">
<path d="M10.2599 17.1982L26.7019 0.587974C27.0899 0.195991 27.5426 0 28.0599 0C28.5773 0 29.03 0.195991 29.418 0.587974C29.806 0.979956 30 1.44576 30 1.98539C30 2.52502 29.806 2.99017 29.418 3.38085L11.618 21.412C11.2299 21.804 10.7773 22 10.2599 22C9.74257 22 9.28989 21.804 8.90188 21.412L0.559632 12.9844C0.171621 12.5924 -0.014625 12.1273 0.00089541 11.589C0.0164159 11.0506 0.218828 10.5848 0.608133 10.1915C0.997438 9.79825 1.45853 9.60226 1.99139 9.60356C2.52426 9.60487 2.9847 9.80086 3.37271 10.1915L10.2599 17.1982Z" fill="#51D34A"/>
</svg>
