<svg width="32" height="32" viewBox="0 0 32 32" fill="none" xmlns="http://www.w3.org/2000/svg">
<path d="M16 0C24.8368 0 32 7.1632 32 16C32 24.8368 24.8368 32 16 32C7.1632 32 0 24.8368 0 16C0 7.1632 7.1632 0 16 0ZM16 20.8C15.5757 20.8 15.1687 20.9686 14.8686 21.2686C14.5686 21.5687 14.4 21.9757 14.4 22.4C14.4 22.8243 14.5686 23.2313 14.8686 23.5314C15.1687 23.8314 15.5757 24 16 24C16.4243 24 16.8313 23.8314 17.1314 23.5314C17.4314 23.2313 17.6 22.8243 17.6 22.4C17.6 21.9757 17.4314 21.5687 17.1314 21.2686C16.8313 20.9686 16.4243 20.8 16 20.8ZM16 6.4C15.6081 6.40005 15.2299 6.54393 14.937 6.80434C14.6441 7.06476 14.4571 7.4236 14.4112 7.8128L14.4 8V17.6C14.4005 18.0078 14.5566 18.4001 14.8366 18.6966C15.1165 18.9931 15.4991 19.1716 15.9062 19.1955C16.3133 19.2194 16.7142 19.0869 17.0269 18.8252C17.3397 18.5634 17.5406 18.1922 17.5888 17.7872L17.6 17.6V8C17.6 7.57565 17.4314 7.16869 17.1314 6.86863C16.8313 6.56857 16.4243 6.4 16 6.4Z" fill="#EEAD45"/>
</svg>
