<svg width="209" height="140" viewBox="0 0 209 140" fill="none" xmlns="http://www.w3.org/2000/svg">
<path d="M63.2415 3.77353L45.422 21.3833C36.6171 30.1882 36.6171 44.6534 45.422 53.4583L60.3065 68.1331C69.1114 76.938 83.367 76.938 92.1719 68.1331L127.601 32.7039C130.117 30.1882 134.519 30.1882 137.035 32.7039C139.551 35.2196 139.551 39.4124 137.035 42.1377L126.763 52.6198C121.731 57.8608 121.731 66.0367 126.763 71.2778C131.794 76.3091 140.18 76.5188 145.211 71.2778L163.03 53.4583C171.835 44.6534 171.835 30.3979 163.03 21.593L148.146 6.7085C139.341 -2.0964 125.085 -2.0964 116.281 6.7085L80.8513 41.7184C78.3356 44.2341 74.1428 44.2341 71.4174 41.7184C68.9018 39.2028 68.9018 35.01 71.4174 32.2846L81.4802 22.2219C86.5116 17.1905 86.5116 8.8049 81.4802 3.77353C76.4488 -1.25784 68.2728 -1.25784 63.2415 3.77353Z" fill="url(#paint0_linear_5433_12981)"/>
<path d="M192.138 138.554V121.59L179.016 101.383H182.658L194.483 119.395H193.036L204.811 101.383H208.454L195.381 121.59V138.554H192.138Z" fill="#303B49"/>
<path d="M163.812 138.554V104.377H153.434V101.383H177.383V104.377H167.055V138.554H163.812Z" fill="#303B49"/>
<path d="M144.705 138.554V101.383H147.948V138.554H144.705Z" fill="#303B49"/>
<path d="M107.918 138.554V101.383H110.662L133.165 133.665H132.117V101.383H135.36V138.554H132.616L110.014 106.073H111.161V138.554H107.918Z" fill="#303B49"/>
<path d="M95.3457 138.554V101.383H98.5889V138.554H95.3457Z" fill="#303B49"/>
<path d="M66.0625 138.554V101.383H88.7647V104.377H69.3057V118.397H87.0183V121.391H69.3057V138.554H66.0625Z" fill="#303B49"/>
<path d="M29.8672 138.554L43.5384 101.383H46.8813L60.5525 138.554H57.0599L53.667 129.074H36.7527L33.3099 138.554H29.8672ZM37.8005 126.081H52.5693L44.5862 103.878H45.7836L37.8005 126.081Z" fill="#303B49"/>
<path d="M13.7211 139.153C11.3594 139.153 9.23054 138.704 7.33454 137.806C5.4718 136.908 3.90843 135.727 2.64443 134.264C1.41369 132.8 0.532212 131.22 0 129.524L2.8939 128.476C3.82527 131.004 5.20569 132.933 7.03517 134.264C8.89791 135.594 11.1099 136.259 13.6712 136.259C15.3676 136.259 16.8478 135.977 18.1118 135.411C19.4091 134.846 20.4236 134.047 21.1554 133.016C21.8872 131.985 22.2531 130.771 22.2531 129.374C22.2531 127.445 21.7042 125.948 20.6066 124.883C19.5421 123.819 18.1451 123.054 16.4154 122.588L9.6297 120.592C6.86885 119.794 4.82317 118.513 3.49264 116.751C2.19537 114.954 1.54674 112.925 1.54674 110.663C1.54674 108.701 2.01242 106.988 2.94379 105.524C3.90843 104.027 5.20569 102.863 6.83559 102.032C8.46549 101.2 10.3116 100.784 12.3739 100.784C14.536 100.784 16.4653 101.2 18.1617 102.032C19.8914 102.83 21.3384 103.894 22.5026 105.225C23.7 106.522 24.5483 107.969 25.0472 109.566L22.2032 110.613C21.3716 108.318 20.091 106.589 18.3613 105.424C16.6316 104.227 14.6524 103.628 12.4238 103.628C10.9602 103.628 9.64633 103.911 8.48212 104.476C7.31791 105.042 6.40317 105.84 5.73791 106.871C5.07264 107.903 4.74001 109.117 4.74001 110.514C4.74001 112.21 5.22232 113.657 6.18696 114.855C7.15159 116.052 8.76486 117 11.0268 117.699L17.1139 119.495C19.775 120.293 21.8207 121.524 23.251 123.187C24.7146 124.817 25.4464 126.829 25.4464 129.224C25.4464 131.187 24.9474 132.916 23.9495 134.413C22.9516 135.877 21.5546 137.041 19.7584 137.906C17.9954 138.738 15.983 139.153 13.7211 139.153Z" fill="#303B49"/>
<defs>
<linearGradient id="paint0_linear_5433_12981" x1="104.226" y1="0" x2="104.226" y2="75.1303" gradientUnits="userSpaceOnUse">
<stop offset="0.0432692" stop-color="#9242CC"/>
<stop offset="0.884615" stop-color="#E9D9F5"/>
</linearGradient>
</defs>
</svg>
