<svg width="174" height="44" viewBox="0 0 174 44" fill="none" xmlns="http://www.w3.org/2000/svg">
<rect width="3.07801" height="43.7078" fill="#303B49"/>
<rect x="9.23438" width="3.07801" height="43.7078" fill="#303B49"/>
<rect x="16.6211" width="3.69362" height="43.7078" fill="#303B49"/>
<rect x="23.3926" width="9.23404" height="43.7078" fill="#303B49"/>
<rect x="45.5547" width="9.84965" height="43.7078" fill="#303B49"/>
<rect x="87.415" width="6.15603" height="43.7078" fill="#303B49"/>
<rect x="122.505" width="9.23404" height="43.7078" fill="#303B49"/>
<rect x="166.828" width="6.77163" height="43.7078" fill="#303B49"/>
<rect x="133.586" width="4.92482" height="43.7078" fill="#303B49"/>
<rect x="110.809" width="9.84965" height="43.7078" fill="#303B49"/>
<rect x="34.4736" width="3.07801" height="43.7078" fill="#303B49"/>
<rect x="40.6299" width="3.07801" height="43.7078" fill="#303B49"/>
<rect x="57.251" width="3.07801" height="43.7078" fill="#303B49"/>
<rect x="64.6387" width="3.07801" height="43.7078" fill="#303B49"/>
<rect x="72.0254" width="3.07801" height="43.7078" fill="#303B49"/>
<rect x="96.6494" width="3.07801" height="43.7078" fill="#303B49"/>
<rect x="104.652" width="3.07801" height="43.7078" fill="#303B49"/>
<rect x="144.051" width="3.69362" height="43.7078" fill="#303B49"/>
<rect x="152.054" width="3.07801" height="43.7078" fill="#303B49"/>
<rect x="159.441" width="3.07801" height="43.7078" fill="#303B49"/>
<rect x="79.4131" width="2.46241" height="43.7078" fill="#303B49"/>
</svg>
